<svg xmlns="http://www.w3.org/2000/svg" viewBox="0 0 48 48" width="48" height="48"><title>무선 AP</title><g fill="#1F3A5F"><path fill-rule="evenodd" d="M11.50 31.00 L36.50 31.00 C38.99 31.00 41.00 33.01 41.00 35.50 L41.00 35.50 C41.00 37.99 38.99 40.00 36.50 40.00 L11.50 40.00 C9.01 40.00 7.00 37.99 7.00 35.50 L7.00 35.50 C7.00 33.01 9.01 31.00 11.50 31.00 Z M20.70 34.30 C20.04 34.30 19.50 34.84 19.50 35.50 L19.50 35.50 C19.50 36.16 20.04 36.70 20.70 36.70 L27.30 36.70 C27.96 36.70 28.50 36.16 28.50 35.50 L28.50 35.50 C28.50 34.84 27.96 34.30 27.30 34.30 L20.70 34.30 Z M24.00 23.20 C25.27 23.20 26.30 24.23 26.30 25.50 C26.30 26.77 25.27 27.80 24.00 27.80 C22.73 27.80 21.70 26.77 21.70 25.50 C21.70 24.23 22.73 23.20 24.00 23.20 Z M17.31 22.98 C19.02 21.08 21.45 20.00 24.00 20.00 C26.55 20.00 28.98 21.08 30.69 22.98 L28.46 24.99 C27.32 23.72 25.70 23.00 24.00 23.00 C22.30 23.00 20.68 23.72 19.54 24.99 Z M12.85 18.96 C15.70 15.80 19.75 14.00 24.00 14.00 C28.25 14.00 32.30 15.80 35.15 18.96 L32.92 20.97 C30.64 18.44 27.40 17.00 24.00 17.00 C20.60 17.00 17.36 18.44 15.08 20.97 Z M8.39 14.95 C12.38 10.53 18.05 8.00 24.00 8.00 C29.95 8.00 35.62 10.53 39.61 14.95 L37.38 16.96 C33.96 13.16 29.10 11.00 24.00 11.00 C18.90 11.00 14.04 13.16 10.62 16.96 Z"/></g></svg>