<svg xmlns="http://www.w3.org/2000/svg" viewBox="0 0 48 48" width="48" height="48"><title>VPN</title><g fill="#1F3A5F"><path fill-rule="evenodd" d="M14.50 12.00 L33.50 12.00 C40.13 12.00 45.50 17.37 45.50 24.00 L45.50 24.00 C45.50 30.63 40.13 36.00 33.50 36.00 L14.50 36.00 C7.87 36.00 2.50 30.63 2.50 24.00 L2.50 24.00 C2.50 17.37 7.87 12.00 14.50 12.00 Z M14.50 16.00 C10.08 16.00 6.50 19.58 6.50 24.00 L6.50 24.00 C6.50 28.42 10.08 32.00 14.50 32.00 L33.50 32.00 C37.92 32.00 41.50 28.42 41.50 24.00 L41.50 24.00 C41.50 19.58 37.92 16.00 33.50 16.00 L14.50 16.00 Z M19.30 30.20 L19.30 23.20 L19.70 23.20 L19.70 21.20 C19.70 18.83 21.63 16.90 24.00 16.90 C26.37 16.90 28.30 18.83 28.30 21.20 L28.30 23.20 L28.70 23.20 L28.70 30.20 L19.30 30.20 Z M21.60 23.20 L26.40 23.20 L26.40 21.20 C26.40 19.87 25.33 18.80 24.00 18.80 C22.67 18.80 21.60 19.87 21.60 21.20 L21.60 23.20 Z"/></g></svg>