<svg xmlns="http://www.w3.org/2000/svg" viewBox="0 0 48 48" width="48" height="48"><title>인터넷</title><g fill="#1F3A5F"><path fill-rule="evenodd" d="M24.00 4.00 C35.05 4.00 44.00 12.95 44.00 24.00 C44.00 35.05 35.05 44.00 24.00 44.00 C12.95 44.00 4.00 35.05 4.00 24.00 C4.00 12.95 12.95 4.00 24.00 4.00 Z M24.00 7.00 C14.61 7.00 7.00 14.61 7.00 24.00 C7.00 33.39 14.61 41.00 24.00 41.00 C33.39 41.00 41.00 33.39 41.00 24.00 C41.00 14.61 33.39 7.00 24.00 7.00 Z"/><path fill-rule="evenodd" d="M24.00 5.80 C28.69 5.80 32.50 13.95 32.50 24.00 C32.50 34.05 28.69 42.20 24.00 42.20 C19.31 42.20 15.50 34.05 15.50 24.00 C15.50 13.95 19.31 5.80 24.00 5.80 Z M24.00 8.80 C20.96 8.80 18.50 15.61 18.50 24.00 C18.50 32.39 20.96 39.20 24.00 39.20 C27.04 39.20 29.50 32.39 29.50 24.00 C29.50 15.61 27.04 8.80 24.00 8.80 Z"/><path fill-rule="evenodd" d="M6.50 22.50 L41.50 22.50 C42.33 22.50 43.00 23.17 43.00 24.00 L43.00 24.00 C43.00 24.83 42.33 25.50 41.50 25.50 L6.50 25.50 C5.67 25.50 5.00 24.83 5.00 24.00 L5.00 24.00 C5.00 23.17 5.67 22.50 6.50 22.50 Z"/><path fill-rule="evenodd" d="M10.30 13.00 L37.70 13.00 C38.42 13.00 39.00 13.58 39.00 14.30 L39.00 14.30 C39.00 15.02 38.42 15.60 37.70 15.60 L10.30 15.60 C9.58 15.60 9.00 15.02 9.00 14.30 L9.00 14.30 C9.00 13.58 9.58 13.00 10.30 13.00 Z"/><path fill-rule="evenodd" d="M10.30 32.40 L37.70 32.40 C38.42 32.40 39.00 32.98 39.00 33.70 L39.00 33.70 C39.00 34.42 38.42 35.00 37.70 35.00 L10.30 35.00 C9.58 35.00 9.00 34.42 9.00 33.70 L9.00 33.70 C9.00 32.98 9.58 32.40 10.30 32.40 Z"/></g></svg>