<svg xmlns="http://www.w3.org/2000/svg" viewBox="0 0 48 48" width="48" height="48"><title>백업 · 복구</title><g fill="#1F3A5F"><path fill-rule="evenodd" d="M40.45 33.50 C36.34 40.63 28.10 44.30 20.05 42.58 C12.00 40.87 5.96 34.17 5.10 25.99 C4.24 17.80 8.75 9.99 16.27 6.64 C23.79 3.29 32.61 5.17 38.12 11.29 L35.59 13.56 C31.07 8.54 23.83 7.00 17.65 9.75 C11.48 12.50 7.78 18.91 8.49 25.63 C9.19 32.35 14.15 37.85 20.76 39.26 C27.37 40.66 34.13 37.65 37.51 31.80 Z"/><path fill-rule="evenodd" d="M31.88 15.56 L40.50 7.80 L41.87 18.00 L31.88 15.56 Z"/><path fill-rule="evenodd" d="M25.50 24.00 C25.50 24.83 24.83 25.50 24.00 25.50 C23.17 25.50 22.50 24.83 22.50 24.00 L22.50 13.00 C22.50 12.17 23.17 11.50 24.00 11.50 C24.83 11.50 25.50 12.17 25.50 13.00 L25.50 24.00 Z"/><path fill-rule="evenodd" d="M23.19 25.26 C22.49 24.81 22.29 23.89 22.74 23.19 C23.19 22.49 24.11 22.29 24.81 22.74 L31.81 27.24 C32.51 27.69 32.71 28.61 32.26 29.31 C31.81 30.01 30.89 30.21 30.19 29.76 L23.19 25.26 Z"/></g></svg>