<svg xmlns="http://www.w3.org/2000/svg" viewBox="0 0 48 48" width="48" height="48"><title>일정</title><g fill="#1F3A5F"><path fill-rule="evenodd" d="M9.00 8.50 L39.00 8.50 C40.93 8.50 42.50 10.07 42.50 12.00 L42.50 39.00 C42.50 40.93 40.93 42.50 39.00 42.50 L9.00 42.50 C7.07 42.50 5.50 40.93 5.50 39.00 L5.50 12.00 C5.50 10.07 7.07 8.50 9.00 8.50 Z M10.50 18.00 C9.67 18.00 9.00 18.67 9.00 19.50 L9.00 37.50 C9.00 38.33 9.67 39.00 10.50 39.00 L37.50 39.00 C38.33 39.00 39.00 38.33 39.00 37.50 L39.00 19.50 C39.00 18.67 38.33 18.00 37.50 18.00 L10.50 18.00 Z M12.10 21.00 L15.10 21.00 C15.54 21.00 15.90 21.36 15.90 21.80 L15.90 25.20 C15.90 25.64 15.54 26.00 15.10 26.00 L12.10 26.00 C11.66 26.00 11.30 25.64 11.30 25.20 L11.30 21.80 C11.30 21.36 11.66 21.00 12.10 21.00 Z M19.00 21.00 L22.00 21.00 C22.44 21.00 22.80 21.36 22.80 21.80 L22.80 25.20 C22.80 25.64 22.44 26.00 22.00 26.00 L19.00 26.00 C18.56 26.00 18.20 25.64 18.20 25.20 L18.20 21.80 C18.20 21.36 18.56 21.00 19.00 21.00 Z M25.90 21.00 L28.90 21.00 C29.34 21.00 29.70 21.36 29.70 21.80 L29.70 25.20 C29.70 25.64 29.34 26.00 28.90 26.00 L25.90 26.00 C25.46 26.00 25.10 25.64 25.10 25.20 L25.10 21.80 C25.10 21.36 25.46 21.00 25.90 21.00 Z M32.80 21.00 L35.80 21.00 C36.24 21.00 36.60 21.36 36.60 21.80 L36.60 25.20 C36.60 25.64 36.24 26.00 35.80 26.00 L32.80 26.00 C32.36 26.00 32.00 25.64 32.00 25.20 L32.00 21.80 C32.00 21.36 32.36 21.00 32.80 21.00 Z M12.10 29.00 L15.10 29.00 C15.54 29.00 15.90 29.36 15.90 29.80 L15.90 33.20 C15.90 33.64 15.54 34.00 15.10 34.00 L12.10 34.00 C11.66 34.00 11.30 33.64 11.30 33.20 L11.30 29.80 C11.30 29.36 11.66 29.00 12.10 29.00 Z M19.00 29.00 L22.00 29.00 C22.44 29.00 22.80 29.36 22.80 29.80 L22.80 33.20 C22.80 33.64 22.44 34.00 22.00 34.00 L19.00 34.00 C18.56 34.00 18.20 33.64 18.20 33.20 L18.20 29.80 C18.20 29.36 18.56 29.00 19.00 29.00 Z M25.90 29.00 L28.90 29.00 C29.34 29.00 29.70 29.36 29.70 29.80 L29.70 33.20 C29.70 33.64 29.34 34.00 28.90 34.00 L25.90 34.00 C25.46 34.00 25.10 33.64 25.10 33.20 L25.10 29.80 C25.10 29.36 25.46 29.00 25.90 29.00 Z M32.80 29.00 L35.80 29.00 C36.24 29.00 36.60 29.36 36.60 29.80 L36.60 33.20 C36.60 33.64 36.24 34.00 35.80 34.00 L32.80 34.00 C32.36 34.00 32.00 33.64 32.00 33.20 L32.00 29.80 C32.00 29.36 32.36 29.00 32.80 29.00 Z"/><path fill-rule="evenodd" d="M15.30 4.50 L15.30 4.50 C16.29 4.50 17.10 5.31 17.10 6.30 L17.10 11.20 C17.10 12.19 16.29 13.00 15.30 13.00 L15.30 13.00 C14.31 13.00 13.50 12.19 13.50 11.20 L13.50 6.30 C13.50 5.31 14.31 4.50 15.30 4.50 Z"/><path fill-rule="evenodd" d="M32.70 4.50 L32.70 4.50 C33.69 4.50 34.50 5.31 34.50 6.30 L34.50 11.20 C34.50 12.19 33.69 13.00 32.70 13.00 L32.70 13.00 C31.71 13.00 30.90 12.19 30.90 11.20 L30.90 6.30 C30.90 5.31 31.71 4.50 32.70 4.50 Z"/></g></svg>